<?xml version="1.0" encoding="utf-8"?>
<!-- Generator: Adobe Illustrator 23.0.1, SVG Export Plug-In . SVG Version: 6.00 Build 0)  -->
<svg version="1.1" id="Layer_1" xmlns="http://www.w3.org/2000/svg" xmlns:xlink="http://www.w3.org/1999/xlink" x="0px" y="0px"
	 viewBox="0 0 800 800" style="enable-background:new 0 0 800 800;" xml:space="preserve">
<path d="M730.96,61.49L400.94,638.46c0,0-25.03-53.55-38.33-126.27c0,0,0.87-113.11,62.01-154.99c0,0,68.47-27.9,88.66,29.43
	c0,0,60.46-89.26-45.42-108.7c0,0,28.33-69.02-161.06-35.26c0,0-31.32,50.22-86.49,78.63l-85.12-144.72h470.11l66.22-114.69H70
	c0,0-87.19,25.38-67.23,115.09l330.68,575.4c0,0,60.22,59.64,133.11,0.12l330.75-575.52C797.31,176.99,819.57,87.36,730.96,61.49z
	 M433.76,288.8l-27.4,13.38l-19.28-12.27C395.75,280.97,433.76,288.8,433.76,288.8z"/>
</svg>
